<svg width="1090" height="828" viewBox="0 0 1090 828" fill="none" xmlns="http://www.w3.org/2000/svg">
<path d="M213.761 300.332C117.972 235.791 40.3323 250.459 0 -21.3977L131.08 -39L1143.42 -30.6878L1153 570.723C1117.88 633.471 1036.34 764.641 991.167 787.328C934.701 815.688 707.328 870.939 663.971 757.502C620.613 644.065 366.016 716.43 291.401 621.085C216.786 525.739 309.551 364.874 213.761 300.332Z" fill="#1FA2FF" fill-opacity="0.4"/>
<path d="M266 307.5C171 241.5 94 256.5 54 -21.5L184 -39.5L1188 -31L1197.5 584C1162.67 648.167 1131.8 729.3 1087 752.5C1031 781.5 755.5 891 712.5 775C669.5 659 417 733 343 635.5C269 538 361 373.5 266 307.5Z" fill="url(#paint0_linear)"/>
<defs>
<linearGradient id="paint0_linear" x1="625.75" y1="-39.5" x2="625.75" y2="845.046" gradientUnits="userSpaceOnUse">
<stop stop-color="#1FA2FF"/>
<stop offset="0.5" stop-color="#12D8FA"/>
<stop offset="1" stop-color="#A6FFCB"/>
</linearGradient>
</defs>
</svg>
