<svg width="93" height="31" viewBox="0 0 93 31" fill="none" xmlns="http://www.w3.org/2000/svg">
<path d="M7.4 23.42C6.22 23.42 4.95 23.26 3.59 22.94C2.25 22.62 1.2 22.27 0.44 21.89L0.89 17.81C3.53 19.09 5.85 19.73 7.85 19.73C8.91 19.73 9.74 19.53 10.34 19.13C10.94 18.71 11.24 18.1 11.24 17.3C11.24 16.7 11.07 16.21 10.73 15.83C10.41 15.43 9.94 15.1 9.32 14.84C8.7 14.56 7.71 14.18 6.35 13.7C5.07 13.26 4.01 12.8 3.17 12.32C2.33 11.82 1.66 11.19 1.16 10.43C0.68 9.65 0.44 8.7 0.44 7.58C0.44 5.78 1.1 4.33 2.42 3.23C3.74 2.13 5.63 1.58 8.09 1.58C9.25 1.58 10.4 1.71 11.54 1.97C12.7 2.23 13.76 2.55 14.72 2.93L14.33 6.86C13.09 6.32 11.95 5.92 10.91 5.66C9.89 5.38 8.87 5.24 7.85 5.24C6.71 5.24 5.84 5.43 5.24 5.81C4.64 6.19 4.34 6.74 4.34 7.46C4.34 8.02 4.5 8.48 4.82 8.84C5.14 9.2 5.57 9.5 6.11 9.74C6.67 9.98 7.49 10.27 8.57 10.61C10.99 11.37 12.75 12.25 13.85 13.25C14.97 14.23 15.53 15.58 15.53 17.3C15.53 18.94 14.96 20.37 13.82 21.59C12.68 22.81 10.54 23.42 7.4 23.42ZM30.1466 8V23H26.6666L26.6066 22.1C26.1466 22.44 25.6166 22.73 25.0166 22.97C24.4166 23.19 23.8366 23.3 23.2766 23.3C21.0566 23.3 19.4366 22.66 18.4166 21.38C17.4166 20.1 16.9166 18.33 16.9166 16.07V8H20.6366V16.07C20.6366 17.47 20.8666 18.51 21.3266 19.19C21.8066 19.85 22.5666 20.18 23.6066 20.18C24.7666 20.18 25.7066 19.76 26.4266 18.92V8H30.1466ZM37.6093 23.3C36.2893 23.3 35.2893 22.92 34.6093 22.16C33.9293 21.38 33.5893 20.45 33.5893 19.37V11.06H31.4593L31.7893 8H33.5893V4.7L37.3093 4.31V8H40.6093V11.06H37.3093V17.84C37.3093 18.64 37.3493 19.2 37.4293 19.52C37.5293 19.82 37.7193 20.02 37.9993 20.12C38.2993 20.2 38.8293 20.24 39.5893 20.24H40.6093L40.2793 23.3H37.6093ZM55.8118 0.499998V23H52.3018L52.2418 22.04C51.6618 22.46 51.0518 22.78 50.4118 23C49.7918 23.2 49.0518 23.3 48.1918 23.3C46.7318 23.3 45.4718 22.95 44.4118 22.25C43.3718 21.55 42.5818 20.61 42.0418 19.43C41.5018 18.25 41.2318 16.95 41.2318 15.53C41.2318 14.11 41.5018 12.81 42.0418 11.63C42.5818 10.45 43.3718 9.51 44.4118 8.81C45.4718 8.11 46.7318 7.76 48.1918 7.76C49.6518 7.76 50.9518 8.16 52.0918 8.96V0.499998H55.8118ZM48.7318 20.24C49.9118 20.24 50.7918 19.82 51.3718 18.98C51.9718 18.14 52.2718 16.99 52.2718 15.53C52.2718 14.07 51.9718 12.92 51.3718 12.08C50.7918 11.24 49.9118 10.82 48.7318 10.82C47.5718 10.82 46.6618 11.25 46.0018 12.11C45.3618 12.97 45.0418 14.11 45.0418 15.53C45.0418 16.95 45.3618 18.09 46.0018 18.95C46.6618 19.81 47.5718 20.24 48.7318 20.24ZM58.3705 2H62.0905V5.72H58.3705V2ZM58.3705 8H62.0905V23H58.3705V8ZM65.5775 11.06H63.4475L63.7775 8H65.5775V4.82C65.5775 3.48 65.9675 2.43 66.7475 1.67C67.5475 0.889999 68.6775 0.499998 70.1375 0.499998C70.9575 0.499998 71.7675 0.589998 72.5675 0.769998L72.2375 3.77C71.8975 3.67 71.5075 3.62 71.0675 3.62C69.8875 3.62 69.2975 4.24 69.2975 5.48V8H72.5975V11.06H69.2975V23H65.5775V11.06ZM78.5028 22.01L72.2628 8H76.4028L80.2428 17.66L84.1428 8H88.2828L78.8928 30.26H75.1728L78.5028 22.01Z" fill="white"/>
<path d="M88.8261 18.92H92.7261V23H88.8261V18.92Z" fill="#1FA2FF"/>
</svg>
